<svg xmlns="http://www.w3.org/2000/svg" viewBox="0 0 128 128">
  <defs>
    <linearGradient id="g" x1="0" y1="0" x2="1" y2="1">
      <stop offset="0" stop-color="#0e7a47"/>
      <stop offset="1" stop-color="#13a360"/>
    </linearGradient>
  </defs>
  <rect width="128" height="128" rx="20" fill="url(#g)"/>
  <g fill="#fff">
    <path d="M64 22a6 6 0 0 1 6 6v12a6 6 0 1 1-12 0V28a6 6 0 0 1 6-6z"/>
    <path d="M30 48c12-10 22-12 34-12s22 2 34 12c10 9 16 22 16 36a6 6 0 0 1-6 6H20a6 6 0 0 1-6-6c0-14 6-27 16-36z" opacity=".2"/>
    <path d="M34 56c9-8 18-10 30-10s21 2 30 10c7 6 12 16 12 26H22c0-10 5-20 12-26z"/>
  </g>
  <text x="64" y="110" text-anchor="middle" font-family="Segoe UI, Arial" font-size="14" fill="#eafff3">seven_code7</text>
  
</svg>

